#!OML:ASF X:\für Bonn\!DataBase\2005_08_12_Daniel\c3d\Daniel.ASF
:FULLY-SPECIFIED
:DEGREES
69
root 2.33124 17.0777 0.17956 344.343 -87.2492 -352.808
lowerback 14.0647 -3.53534 -1.58047
upperback 7.00509 -5.23727 -0.983448
thorax -0.435712 -2.7949 0.597486
lowerneck 25.0557 3.95112 -3.75725
upperneck 7.00785 3.27674 0.676066
head -2.01875 1.1598 0.599338
rclavicle 4.22417e-014 1.98785e-015
rhumerus 319.943 -9.50663 -7.60795
rradius 22.3649
rwrist -410.067
rhand -43.1409 20.2228
rfingers 7.12502
rthumb -15.994 -9.13693
lclavicle 4.22417e-014 1.98785e-015
lhumerus -53.2028 38.4338 -23.1918
lradius 22.1991
lwrist 35.7514
lhand -33.2505 15.3617
lfingers 7.12502
lthumb -6.45602 45.2433
rfemur 7.83238 12.868 14.5331
rtibia 19.7958
rfoot -30.5574 -26.1117
rtoes -8.80591
lfemur -2.73147 -15.6485 -15.0372
ltibia 33.5832
lfoot -27.5425 8.47417
ltoes -0.451213
70
root 2.36245 17.0783 0.189669 343.875 -87.2733 -352.418
lowerback 14.6713 -3.44314 -1.42141
upperback 7.11352 -5.11999 -0.971799
thorax -0.657851 -2.73773 0.544341
lowerneck 23.6946 3.80254 -3.85473
upperneck 6.88472 3.19933 0.721725
head -1.83594 1.15206 0.649085
rclavicle -3.18055e-014 2.78299e-015
rhumerus 318.872 -13.7142 -10.111
rradius 20.3585
rwrist -403.688
rhand -40.3869 19.21
rfingers 7.12502
rthumb -13.3407 -10.3429
lclavicle -3.18055e-014 2.78299e-015
lhumerus -56.42 41.546 -21.9165
lradius 21.3181
lwrist 33.4976
lhand -32.3205 16.0085
lfingers 7.12502
lthumb -5.55821 45.9156
rfemur 7.74791 12.7181 14.4014
rtibia 19.8281
rfoot -30.2952 -26.0058
rtoes -8.8484
lfemur -2.74334 -15.6059 -15.0879
ltibia 33.5473
lfoot -27.4481 8.50896
ltoes -0.430484
71
root 2.39782 17.0795 0.199127 343.018 -87.2939 -351.651
lowerback 15.3284 -3.346 -1.285
upperback 7.20278 -4.99807 -0.958
thorax -0.922716 -2.67827 0.50762
lowerneck 22.1583 3.63012 -3.92293
upperneck 6.86519 3.10459 0.729308
head -1.58456 1.13597 0.683138
rclavicle -8.44835e-015 6.36111e-015
rhumerus 317.936 -17.8091 -12.4683
rradius 18.2161
rwrist -396.984
rhand -37.7987 18.5382
rfingers 7.12502
rthumb -10.8451 -11.1618
lclavicle -8.44835e-015 6.36111e-015
lhumerus -59.8324 44.6844 -20.986
lradius 20.4001
lwrist 30.8018
lhand -31.1941 16.8506
lfingers 7.12502
lthumb -4.47053 46.7835
rfemur 7.64117 12.488 14.2232
rtibia 19.8775
rfoot -29.9384 -25.8561
rtoes -8.9348
lfemur -2.76648 -15.5543 -15.1536
ltibia 33.525
lfoot -27.3252 8.54075
ltoes -0.412355
72
root 2.44015 17.0792 0.209741 342.147 -87.3198 -350.901
lowerback 16.0479 -3.23909 -1.08397
upperback 7.27608 -4.85432 -0.98062
thorax -1.24386 -2.60554 0.39621
lowerneck 20.6087 3.45152 -3.97318
upperneck 6.88945 3.00298 0.802376
head -1.31745 1.11218 0.734887
rclavicle -4.9398e-014 1.59028e-014
rhumerus 316.877 -22.0725 -14.3833
rradius 16.0656
rwrist -389.754
rhand -35.4528 18.1594
rfingers 7.12502
rthumb -8.58176 -11.6462
lclavicle -4.9398e-014 1.59028e-014
lhumerus -63.6161 48.0484 -20.8043
lradius 19.3229
lwrist 27.1829
lhand -29.7985 17.6639
lfingers 7.12502
lthumb -3.12285 47.6208
rfemur 7.51431 12.1846 14.0188
rtibia 19.9595
rfoot -29.5455 -25.6259
rtoes -9.0054
lfemur -2.78731 -15.505 -15.2177
ltibia 33.515
lfoot -27.2102 8.54973
ltoes -0.360815
73
root 2.48698 17.0798 0.219885 341.589 -87.3541 -350.466
lowerback 16.7782 -3.14246 -0.876676
upperback 7.32425 -4.71887 -0.984268
thorax -1.59292 -2.53662 0.300876
lowerneck 19.0286 3.29758 -4.11968
upperneck 6.9651 2.91038 0.919753
head -1.03233 1.08727 0.81561
rclavicle 4.35338e-014 -7.15625e-015
rhumerus 315.364 -27.5551 -14.9049
rradius 13.8929
rwrist -380.875
rhand -33.4303 18.0393
rfingers 7.12502
rthumb -6.62967 -11.8369
lclavicle 4.35338e-014 -7.15625e-015
lhumerus -68.1086 51.3623 -21.5029
lradius 18.3678
lwrist 22.8482
lhand -28.3054 18.1539
lfingers 7.12502
lthumb -1.68088 48.127
rfemur 7.3447 11.8254 13.8109
rtibia 20.0708
rfoot -29.0896 -25.3672
rtoes -9.08464
lfemur -2.84217 -15.3831 -15.2438
ltibia 33.5182
lfoot -27.0264 8.53951
ltoes -0.354711
74
root 2.53767 17.0792 0.231342 341.057 -87.395 -350.067
lowerback 17.4532 -3.03985 -0.636703
upperback 7.38876 -4.56784 -1.00003
thorax -1.8966 -2.46043 0.164178
lowerneck 17.5181 3.11102 -4.18028
upperneck 7.03056 2.78551 0.969556
head -0.760156 1.04851 0.859543
rclavicle 7.11649e-014 -1.51076e-014
rhumerus 312.919 -33.9157 -13.8973
rradius 11.8234
rwrist -370.856
rhand -31.7475 18.239
rfingers 7.12502
rthumb -5.00488 -11.6818
lclavicle 7.11649e-014 -1.51076e-014
lhumerus -73.9989 54.8109 -23.8192
lradius 17.5256
lwrist 17.3403
lhand -26.8858 18.0445
lfingers 7.12502
lthumb -0.309776 48.0241
rfemur 7.15206 11.3984 13.5776
rtibia 20.199
rfoot -28.5792 -25.0589
rtoes -9.18805
lfemur -2.91106 -15.2513 -15.2685
ltibia 33.5417
lfoot -26.8386 8.51834
ltoes -0.332427
75
root 2.5897 17.0781 0.242229 340.051 -87.4292 -349.217
lowerback 18.1111 -2.95266 -0.433329
upperback 7.44879 -4.4398 -1.01696
thorax -2.19043 -2.39685 0.0468321
lowerneck 16.1119 2.96134 -4.30841
upperneck 7.04549 2.68862 1.04903
head -0.526314 1.02043 0.920859
rclavicle -2.66868e-014 -3.18055e-015
rhumerus 314.522 -34.277 -20.0354
rradius 9.87717
rwrist -369.202
rhand -31.9279 18.2957
rfingers 7.12502
rthumb -5.17913 -11.621
lclavicle -2.66868e-014 -3.18055e-015
lhumerus -78.827 57.4145 -24.5816
lradius 16.9025
lwrist 12.8634
lhand -26.1435 17.373
lfingers 7.12502
lthumb 0.40712 47.3524
rfemur 6.96683 10.9742 13.3287
rtibia 20.3575
rfoot -28.0743 -24.7362
rtoes -9.28298
lfemur -2.96266 -15.1143 -15.3122
ltibia 33.5708
lfoot -26.6526 8.4652
ltoes -0.27045
76
root 2.64254 17.0762 0.254225 339.497 -87.4636 -348.808
lowerback 18.7557 -2.87099 -0.179604
upperback 7.49652 -4.30713 -1.04351
thorax -2.49209 -2.33004 -0.112943
lowerneck 14.6254 2.79696 -4.42381
upperneck 7.16895 2.5757 1.13495
head -0.245082 0.981651 0.982489
rclavicle -2.29596e-014 4.77083e-015
rhumerus 316.482 -34.4825 -26.1966
rradius 7.98082
rwrist -368.031
rhand -31.9966 18.5854
rfingers 7.12502
rthumb -5.24549 -11.3297
lclavicle -2.29596e-014 4.77083e-015
lhumerus -80.4368 59.3243 -21.5675
lradius 16.3789
lwrist 10.0926
lhand -26.1251 16.2894
lfingers 7.12502
lthumb 0.424882 46.2687
rfemur 6.75994 10.5232 13.0909
rtibia 20.5276
rfoot -27.5671 -24.3873
rtoes -9.36933
lfemur -3.0476 -14.9106 -15.3127
ltibia 33.6111
lfoot -26.4315 8.35393
ltoes -0.215078
77
root 2.69224 17.0736 0.265078 338.035 -87.49 -347.525
lowerback 19.3856 -2.7828 0.0216022
upperback 7.5468 -4.17332 -1.08624
thorax -2.77827 -2.26413 -0.264605
lowerneck 13.1539 2.62368 -4.47799
upperneck 7.31501 2.45726 1.18791
head 0.0404647 0.940395 1.02286
rclavicle 5.46658e-014 -1.59028e-015
rhumerus 319.17 -34.6451 -32.6698
rradius 5.78176
rwrist -367.063
rhand -32.3404 19.3934
rfingers 7.12502
rthumb -5.57743 -10.5132
lclavicle 5.46658e-014 -1.59028e-015
lhumerus -78.2007 60.7662 -14.2939
lradius 15.9601
lwrist 8.96757
lhand -26.9633 15.0324
lfingers 7.12502
lthumb -0.384683 45.0118
rfemur 6.59038 10.0566 12.8147
rtibia 20.7084
rfoot -27.0392 -24.032
rtoes -9.49594
lfemur -3.07035 -14.6988 -15.3652
ltibia 33.6486
lfoot -26.2311 8.23299
ltoes -0.164215
